<svg xmlns="http://www.w3.org/2000/svg" viewBox="0 0 24 24" aria-hidden="true">
  <path fill="#f5f7ff" d="M10.15 4.72c.75-.86 1.96-1.47 2.98-1.52.13 1.14-.33 2.3-1.04 3.11-.72.81-1.89 1.43-3.03 1.34-.15-1.09.39-2.24 1.09-2.93Z"/>
  <path fill="#f5f7ff" d="M16.6 13.01c.03 2.86 2.51 3.81 2.54 3.83-.02.07-.39 1.33-1.29 2.65-.78 1.14-1.58 2.28-2.85 2.3-1.24.02-1.64-.74-3.06-.74-1.42 0-1.87.71-3.03.76-1.22.05-2.16-1.22-2.95-2.35-1.61-2.33-2.84-6.59-1.19-9.45.82-1.42 2.29-2.33 3.89-2.35 1.21-.02 2.36.81 3.06.81.7 0 2.03-.99 3.42-.85.58.02 2.22.23 3.27 1.78-.08.05-1.95 1.13-1.91 3.61Z"/>
</svg>
