<svg xmlns="http://www.w3.org/2000/svg" viewBox="0 0 24 24" aria-hidden="true">
  <path fill="#4285F4" d="M23.49 12.27c0-.79-.07-1.55-.2-2.27H12v4.3h6.45a5.52 5.52 0 0 1-2.39 3.63v3.02h3.87c2.27-2.09 3.56-5.18 3.56-8.68Z"/>
  <path fill="#34A853" d="M12 24c3.24 0 5.95-1.07 7.94-2.91l-3.87-3.02c-1.07.72-2.45 1.14-4.07 1.14-3.13 0-5.79-2.11-6.74-4.95H1.26v3.12A12 12 0 0 0 12 24Z"/>
  <path fill="#FBBC05" d="M5.26 14.26A7.2 7.2 0 0 1 4.88 12c0-.79.14-1.56.38-2.26V6.62H1.26A12 12 0 0 0 0 12c0 1.94.46 3.77 1.26 5.38l4-3.12Z"/>
  <path fill="#EA4335" d="M12 4.77c1.76 0 3.33.61 4.57 1.8l3.43-3.43C17.94 1.18 15.24 0 12 0A12 12 0 0 0 1.26 6.62l4 3.12c.95-2.84 3.61-4.97 6.74-4.97Z"/>
</svg>
