<svg xmlns="http://www.w3.org/2000/svg" viewBox="0 0 24 24" aria-hidden="true">
  <path fill="#f5f7ff" d="M12 .5C5.65.5.5 5.66.5 12.03c0 5.1 3.3 9.42 7.87 10.95.58.11.79-.25.79-.56 0-.28-.01-1.19-.02-2.16-3.2.7-3.88-1.37-3.88-1.37-.52-1.34-1.28-1.69-1.28-1.69-1.05-.72.08-.71.08-.71 1.16.08 1.78 1.2 1.78 1.2 1.03 1.77 2.71 1.26 3.37.97.1-.75.4-1.26.72-1.55-2.55-.29-5.22-1.28-5.22-5.67 0-1.25.45-2.28 1.18-3.08-.12-.29-.51-1.47.11-3.06 0 0 .97-.31 3.17 1.18a10.9 10.9 0 0 1 5.78 0c2.2-1.49 3.16-1.18 3.16-1.18.63 1.59.24 2.77.12 3.06.74.8 1.18 1.83 1.18 3.08 0 4.4-2.67 5.37-5.24 5.66.41.36.78 1.08.78 2.18 0 1.57-.01 2.83-.01 3.22 0 .31.21.68.8.56A11.55 11.55 0 0 0 23.5 12.03C23.5 5.66 18.35.5 12 .5Z"/>
</svg>
